<svg xmlns="http://www.w3.org/2000/svg" viewBox="0 0 1000 750" width="800"><g id="background-wash"><rect x="0" y="0" width="1000" height="750" fill="#f5eedd"/></g><g id="deepest-blurs"><path d="M0 750 C100 650 300 600 500 650 C700 700 900 680 1000 750 Z" fill="rgba(100, 40, 40, 0.05)"/><path d="M100 750 C250 600 450 620 600 700 C750 780 900 720 1000 700 V750 Z" fill="rgba(100, 40, 40, 0.07)"/></g><g id="mid-ground-softness"><path d="M0 750 L0 550 C150 500 350 520 500 580 C650 640 850 600 1000 650 L1000 750 Z" fill="rgba(120, 30, 30, 0.1)"/><ellipse cx="200" cy="600" rx="150" ry="80" fill="rgba(130, 35, 35, 0.12)"/><ellipse cx="800" cy="620" rx="120" ry="70" fill="rgba(130, 35, 35, 0.1)"/></g><g id="upper-blurred-buds"><path d="M300 400 C320 350 380 350 400 400 C420 450 350 480 300 400 Z" fill="rgba(150, 40, 40, 0.2)"/><path d="M550 450 C570 400 630 400 650 450 C670 500 600 530 550 450 Z" fill="rgba(150, 40, 40, 0.2)"/><path d="M700 500 C720 450 780 450 800 500 C820 550 750 580 700 500 Z" fill="rgba(150, 40, 40, 0.2)"/><path d="M100 550 C120 500 180 500 200 550 C220 600 150 630 100 550 Z" fill="rgba(150, 40, 40, 0.2)"/></g><g id="mid-level-petals"><path d="M250 600 C270 550 330 550 350 600 C370 650 300 680 250 600 Z" fill="rgba(170, 45, 45, 0.3)"/><path d="M400 650 C420 600 480 600 500 650 C520 700 450 730 400 650 Z" fill="rgba(170, 45, 45, 0.3)"/><path d="M600 680 C620 630 680 630 700 680 C720 730 650 760 600 680 Z" fill="rgba(170, 45, 45, 0.3)"/><path d="M800 700 C820 650 880 650 900 700 C920 750 850 780 800 700 Z" fill="rgba(170, 45, 45, 0.3)"/></g><g id="foreground-dark-petals"><path d="M300 750 C320 700 380 700 400 750 Z" fill="rgba(150, 20, 20, 0.4)"/><path d="M500 750 C520 700 580 700 600 750 Z" fill="rgba(150, 20, 20, 0.4)"/><path d="M650 750 C670 700 730 700 750 750 Z" fill="rgba(150, 20, 20, 0.4)"/><path d="M150 750 C170 700 230 700 250 750 Z" fill="rgba(150, 20, 20, 0.4)"/><path d="M400 680 C420 630 480 630 500 680 C520 730 450 760 400 680 Z" fill="rgba(150, 20, 20, 0.4)"/></g><g id="main-flower-petals"><path d="M490 700 C470 650 480 600 500 590 C520 600 530 650 510 700 Z" fill="#d00000"/><path d="M510 700 C530 650 540 600 520 590 C500 600 490 650 510 700 Z" fill="#d00000"/><path d="M500 590 C510 540 540 520 560 550 C580 580 550 600 500 590 Z" fill="#d00000"/><path d="M560 550 C580 520 610 540 620 590 C630 640 600 660 560 550 Z" fill="#d00000"/><path d="M620 590 C630 640 600 660 560 550 Z" fill="#d00000"/><path d="M490 700 C470 730 440 740 420 720 C400 700 430 680 490 700 Z" fill="#d00000"/><path d="M420 720 C400 700 430 680 490 700 Z" fill="#d00000"/></g><g id="flower-center-details"><ellipse cx="500" cy="600" rx="5" ry="8" fill="#fff8e7"/><path d="M500 600 L505 580 L500 575 L495 580 Z" fill="#fff8e7"/><path d="M500 600 L500 570" stroke="#fff8e7" strokeWidth="1"/></g><g id="fine-hairs-and-highlights"><line x1="480" y1="680" x2="520" y2="620" stroke="rgba(255, 255, 255, 0.7)" strokeWidth="0.5"/><line x1="510" y1="650" x2="550" y2="600" stroke="rgba(255, 255, 255, 0.7)" strokeWidth="0.5"/><circle cx="495" cy="690" r="0.5" fill="rgba(255, 255, 255, 0.8)"/><circle cx="505" cy="685" r="0.5" fill="rgba(255, 255, 255, 0.8)"/><circle cx="520" cy="670" r="0.5" fill="rgba(255, 255, 255, 0.8)"/><circle cx="530" cy="650" r="0.5" fill="rgba(255, 255, 255, 0.8)"/><circle cx="480" cy="670" r="0.5" fill="rgba(255, 255, 255, 0.8)"/></g></svg>