<svg xmlns="http://www.w3.org/2000/svg" viewBox="0 0 1000 750" width="800"><g id="sky-base"><defs><linearGradient id="skyGrad" x1="0%" y1="0%" x2="0%" y2="100%"><stop offset="0%" stop-color="#5d7fa3" /><stop offset="60%" stop-color="#fbd185" /><stop offset="100%" stop-color="#f5b154" /></linearGradient></defs><rect x="0" y="0" width="1000" height="480" fill="url(#skyGrad)"/></g><g id="clouds"><path d="M50,150 Q150,120 250,160 T450,140 T650,180 T850,150 Q950,180 980,220 L1000,300 L0,300 Z" fill="#9ca6b5" fillOpacity="0.3"/><path d="M300,280 Q450,250 600,290 T850,270 Q950,300 980,350 L1000,400 L200,400 Z" fill="#b89485" fillOpacity="0.4"/></g><g id="buildings"><path d="M340,480 L340,430 L370,430 L370,415 L430,415 L430,450 L560,450 L560,480 Z" fill="#dcdde1"/><rect x="220" y="460" width="120" height="20" fill="#bfc1c9"/></g><g id="chimney"><rect x="308" y="200" width="24" height="280" fill="#c0c2ce"/><rect x="308" y="200" width="24" height="10" fill="#a53a3a"/><rect x="308" y="220" width="24" height="10" fill="#a53a3a"/><rect x="306" y="415" width="28" height="65" fill="#e8e9ed"/></g><g id="shoreline"><rect x="0" y="480" width="1000" height="40" fill="#4a413a"/><path d="M0,520 Q250,510 500,520 T1000,510 L1000,525 L0,525 Z" fill="#2d2824"/></g><g id="water"><defs><linearGradient id="waterGrad" x1="0%" y1="0%" x2="0%" y2="100%"><stop offset="0%" stop-color="#4b5461" /><stop offset="100%" stop-color="#1a1c21" /></linearGradient></defs><rect x="0" y="525" width="1000" height="225" fill="url(#waterGrad)"/></g><g id="reflections"><path d="M308,525 L332,525 L330,750 L306,750 Z" fill="#3b424d" fillOpacity="0.6"/><path d="M340,525 L560,525 L540,650 L360,650 Z" fill="#5a6370" fillOpacity="0.4"/><path d="M0,525 L1000,525 L1000,600 L0,600 Z" fill="#fbd185" fillOpacity="0.2"/></g><g id="lights"><circle cx="320" arc="5" cy="430" r="3" fill="#ffffff"/><circle cx="380" cy="505" r="4" fill="#fff7d1"/><circle cx="440" cy="508" r="3" fill="#fff7d1"/><circle cx="490" cy="505" r="3" fill="#fff7d1"/><rect x="378" y="525" width="4" height="80" fill="#fce181" fillOpacity="0.7"/><rect x="438" y="525" width="4" height="60" fill="#fce181" fillOpacity="0.7"/><rect x="488" y="525" width="4" height="50" fill="#fce181" fillOpacity="0.7"/></g><g id="silhouettes"><path d="M130,505 L130,480 M120,485 L140,485 M125,480 L135,490" stroke="#212121" strokeWidth="2"/><path d="M850,505 L850,470 M840,475 L860,475 M845,465 L855,485" stroke="#212121" strokeWidth="2"/><path d="M920,505 L920,460 M910,465 L930,465 M915,455 L925,475" stroke="#212121" strokeWidth="2"/><line x1="750" y1="505" x2="750" y2="420" stroke="#212121" strokeWidth="1"/><path d="M750,430 L850,460 M750,440 L850,470" stroke="#212121" strokeWidth="0.5" fill="none"/></g></svg>